<svg xmlns="http://www.w3.org/2000/svg" viewBox="0 0 390 180" fill="none">
  <!-- Decorative thread: peach squiggle passing behind the badge, loop on the right. -->
  <path d="M-10,102 C55,52 120,68 158,96" stroke="#F2A488" stroke-width="5" stroke-linecap="round"/>
  <path d="M232,104 C275,124 305,116 322,88 C334,66 338,42 348,30 C357,20 365,30 360,56 C354,86 332,108 312,118 C336,128 366,124 400,104" stroke="#F2A488" stroke-width="5" stroke-linecap="round"/>
  <!-- Center badge: peach rounded square. -->
  <rect x="155" y="60" width="80" height="80" rx="24" fill="#F2A488"/>
  <!-- Dark heart glyph, small like the reference. -->
  <path d="M195,112 C185,104 179,98 179,90 C179,84 183,80 188,80 C191,80 194,82 195,85 C196,82 199,80 202,80 C207,80 211,84 211,90 C211,98 205,104 195,112 Z" fill="#0B0B0C"/>
  <ellipse cx="204" cy="87" rx="4" ry="6" fill="#F2A488" opacity="0.55"/>
</svg>
