<svg xmlns="http://www.w3.org/2000/svg" viewBox="0 0 300 300" fill="none">
  <ellipse cx="150" cy="158" rx="118" ry="106" fill="#FFFDF9" opacity="0.55"/>

  <g fill="#7C9448">
    <path d="M38 190c-8-34 6-62 34-76-2 32-12 60-34 76Z"/>
    <path d="M262 190c8-34-6-62-34-76 2 32 12 60 34 76Z"/>
  </g>

  <!-- music sheet -->
  <rect x="52" y="92" width="196" height="130" rx="28" fill="#FFFFFF"/>
  <rect x="52" y="92" width="196" height="130" rx="28" stroke="#2B1D16" stroke-width="3.2" opacity="0.14"/>
  <g stroke="#8A7A6E" stroke-width="3" stroke-linecap="round" opacity="0.5">
    <path d="M72 128h156M72 148h156M72 168h156M72 188h120"/>
  </g>

  <!-- headphones -->
  <g>
    <path d="M96 148v-14c0-32 24-52 54-52s54 20 54 52v14" stroke="#2B1D16" stroke-width="16" stroke-linecap="round"/>
    <rect x="78" y="132" width="36" height="58" rx="18" fill="#2B1D16"/>
    <rect x="186" y="132" width="36" height="58" rx="18" fill="#2B1D16"/>
    <rect x="86" y="142" width="20" height="38" rx="10" fill="#9D8FF0"/>
    <rect x="194" y="142" width="20" height="38" rx="10" fill="#F47F42"/>
  </g>

  <!-- rising notes -->
  <g fill="#2B1D16">
    <ellipse cx="108" cy="66" rx="10" ry="8" transform="rotate(-18 108 66)"/>
    <rect x="114" y="34" width="5" height="32" rx="2.5"/>
    <ellipse cx="196" cy="58" rx="10" ry="8" transform="rotate(-18 196 58)"/>
    <rect x="202" y="26" width="5" height="32" rx="2.5"/>
  </g>
  <g fill="#F47F42">
    <ellipse cx="150" cy="48" rx="9" ry="7" transform="rotate(-18 150 48)"/>
    <rect x="156" y="20" width="5" height="28" rx="2.5"/>
  </g>

  <!-- play pill overlapping the card -->
  <g>
    <rect x="106" y="196" width="88" height="52" rx="26" fill="#2B1D16"/>
    <path d="M138 210l24 12-24 12Z" fill="#FFFFFF"/>
    <circle cx="122" cy="222" r="5" fill="#7C9448"/>
  </g>

  <circle cx="64" cy="244" r="7" fill="#E7C65A"/>
  <circle cx="240" cy="244" r="7" fill="#9D8FF0"/>
</svg>
