<svg xmlns="http://www.w3.org/2000/svg" viewBox="0 0 300 300" fill="none">
  <defs>
    <radialGradient id="rmHalo" cx="50%" cy="42%" r="62%">
      <stop offset="0%" stop-color="#FFFDF9"/>
      <stop offset="70%" stop-color="#FFFDF9" stop-opacity="0.55"/>
      <stop offset="100%" stop-color="#FFFDF9" stop-opacity="0"/>
    </radialGradient>
    <linearGradient id="bellBody" x1="0" y1="0" x2="0" y2="1">
      <stop offset="0%" stop-color="#F79155"/>
      <stop offset="100%" stop-color="#E56F31"/>
    </linearGradient>
  </defs>

  <ellipse cx="150" cy="158" rx="128" ry="114" fill="url(#rmHalo)"/>
  <ellipse cx="150" cy="158" rx="112" ry="100" fill="#FFFFFF" opacity="0.5"/>

  <g>
    <path d="M30 196c-10-40 8-72 42-86-4 38-16 68-42 86Z" fill="#7C9448"/>
    <path d="M38 190c6-26 18-48 34-64" stroke="#5F7A36" stroke-width="2.4" stroke-linecap="round"/>
    <path d="M40 176l12-4M44 162l11-5" stroke="#5F7A36" stroke-width="2" stroke-linecap="round"/>
    <path d="M270 196c10-40-8-72-42-86 4 38 16 68 42 86Z" fill="#7C9448"/>
    <path d="M262 190c-6-26-18-48-34-64" stroke="#5F7A36" stroke-width="2.4" stroke-linecap="round"/>
    <path d="M260 176l-12-4M256 162l-11-5" stroke="#5F7A36" stroke-width="2" stroke-linecap="round"/>
  </g>

  <ellipse cx="150" cy="252" rx="104" ry="11" fill="#2B1D16" opacity="0.1"/>

  <!-- phone with toggles, time pills and a ringing row -->
  <g>
    <rect x="48" y="72" width="108" height="172" rx="28" fill="#2B1D16"/>
    <rect x="52" y="76" width="100" height="164" rx="24" fill="#3A2A21"/>
    <rect x="56" y="80" width="92" height="156" rx="20" fill="#FFFFFF"/>
    <rect x="56" y="80" width="92" height="26" rx="13" fill="#2B1D16" opacity="0.06"/>
    <rect x="82" y="85" width="40" height="10" rx="5" fill="#2B1D16"/>
    <g>
      <rect x="66" y="110" width="72" height="32" rx="16" fill="#E3EAD0"/>
      <rect x="66" y="110" width="72" height="32" rx="16" stroke="#7C9448" stroke-width="2"/>
      <circle cx="78" cy="126" r="7" fill="#7C9448"/>
      <rect x="89" y="121" width="26" height="9" rx="4.5" fill="#2B1D16" opacity="0.8"/>
      <rect x="118" y="119" width="14" height="14" rx="7" fill="#FFFFFF"/>
      <rect x="66" y="148" width="72" height="32" rx="16" fill="#FDE3D2"/>
      <rect x="66" y="148" width="72" height="32" rx="16" stroke="#F47F42" stroke-width="2"/>
      <circle cx="78" cy="164" r="7" fill="#F47F42"/>
      <rect x="89" y="159" width="26" height="9" rx="4.5" fill="#2B1D16" opacity="0.8"/>
      <rect x="118" y="157" width="14" height="14" rx="7" fill="#FFFFFF"/>
      <rect x="66" y="186" width="72" height="32" rx="16" fill="#E3DEF9"/>
      <rect x="66" y="186" width="72" height="32" rx="16" stroke="#9D8FF0" stroke-width="2"/>
      <circle cx="78" cy="202" r="7" fill="#9D8FF0"/>
      <rect x="89" y="197" width="26" height="9" rx="4.5" fill="#2B1D16" opacity="0.8"/>
      <rect x="118" y="195" width="14" height="14" rx="7" fill="#FFFFFF"/>
    </g>
    <rect x="66" y="222" width="40" height="10" rx="5" fill="#2B1D16" opacity="0.5"/>
  </g>

  <!-- bell with shading, clapper and ringing waves -->
  <g>
    <ellipse cx="198" cy="196" rx="40" ry="9" fill="#2B1D16" opacity="0.1"/>
    <path d="M198 92c-18 0-29 13-29 31v19l-11 18h80l-11-18v-19c0-18-11-31-29-31Z" fill="url(#bellBody)"/>
    <path d="M198 92c-18 0-29 13-29 31v19l-11 18h40V92Z" fill="#2B1D16" opacity="0.16"/>
    <path d="M176 122c0-14 9-24 22-27" stroke="#FFFFFF" stroke-width="4" stroke-linecap="round" opacity="0.6"/>
    <rect x="182" y="156" width="32" height="7" rx="3.5" fill="#2B1D16" opacity="0.25"/>
    <rect x="193" y="66" width="10" height="22" rx="5" fill="#2B1D16"/>
    <circle cx="198" cy="172" r="13" fill="#2B1D16"/>
    <circle cx="194" cy="168" r="3.4" fill="#FFFFFF" opacity="0.5"/>
    <g stroke-linecap="round">
      <path d="M156 88c-9 9-14 22-14 35" stroke="#2B1D16" stroke-width="4"/>
      <path d="M240 88c9 9 14 22 14 35" stroke="#2B1D16" stroke-width="4"/>
      <path d="M146 128c-5 9-7 18-7 27" stroke="#F47F42" stroke-width="4"/>
      <path d="M250 128c5 9 7 18 7 27" stroke="#F47F42" stroke-width="4"/>
    </g>
  </g>

  <!-- floating time chip with pin stem -->
  <g>
    <path d="M212 196v-8" stroke="#2B1D16" stroke-width="2" stroke-dasharray="2 5" opacity="0.6"/>
    <rect x="194" y="198" width="76" height="31" rx="15.5" fill="#2B1D16"/>
    <circle cx="208" cy="213.5" r="7" fill="#E7C65A"/>
    <circle cx="208" cy="213.5" r="7" stroke="#C9A83E" stroke-width="1.6"/>
    <rect x="219" y="208.5" width="38" height="10" rx="5" fill="#FFFFFF"/>
  </g>

  <g stroke-linecap="round" stroke-width="3">
    <path d="M56 250c4-2 8-2 12 0" stroke="#7C9448"/>
    <path d="M232 252c4-2 8-2 12 0" stroke="#9D8FF0"/>
  </g>
  <circle cx="60" cy="252" r="7" fill="#9D8FF0"/>
  <circle cx="60" cy="252" r="7" stroke="#7E6FD6" stroke-width="2"/>
  <circle cx="242" cy="48" r="6" fill="#9DB06C"/>
  <circle cx="242" cy="48" r="6" stroke="#7C9448" stroke-width="2"/>
</svg>
