<svg xmlns="http://www.w3.org/2000/svg" viewBox="0 0 260 200" fill="none">
  <path d="M130 18c58 0 104 26 112 66 8 40-26 82-82 96-56 14-116-4-136-44C4 96 34 46 88 26c14-5 28-8 42-8Z" fill="#E6ECDA" />

  <circle cx="196" cy="52" r="20" fill="#F2824B" />
  <g stroke="#F2824B" stroke-width="3.4" stroke-linecap="round">
    <path d="M196 20v-8M222 30l6-6M170 30l-6-6" />
  </g>

  <path d="M28 150c22-46 44-70 66-70s38 16 56 36 40 34 82 34v22H28Z" fill="#A9BC84" />
  <path d="M28 168c26-26 50-40 72-40s36 12 54 28 42 24 78 24v16H28Z" fill="#7F9A5E" />

  <path d="M40 138c26-30 52-46 78-46s44 14 62 38" stroke="#3A2B22" stroke-width="4" stroke-linecap="round" stroke-dasharray="1 11" />

  <g fill="#3A2B22">
    <circle cx="40" cy="138" r="6" />
    <circle cx="118" cy="92" r="6" />
    <circle cx="180" cy="130" r="6" />
  </g>

  <g stroke="#8A7D72" stroke-width="3.2" stroke-linecap="round" opacity="0.7">
    <path d="M54 62c-6 5-7 13-2 19" />
    <path d="M232 96c6 5 7 13 2 19" />
  </g>
</svg>
